# xmcd CD database file
#
# Track frame offsets:
#	150
#	21006
#	45122
#	66548
#	87800
#	108131
#	124107
#	143325
#	163813
#	187159
#	207743
#	229984
#	250717
#
# Disc length: 3614 seconds
#
# Revision: 0
# Processed by: cddbd v1.5.1PL2 Copyright (c) Steve Scherf et al.
# Submitted via: freeDB plugin v1.0
#
DISCID=af0e1c0d
DTITLE=徳永英明 - VOCALIST
DYEAR=1900
DGENRE=Rock
TTITLE0=時代
TTITLE1=ハナミズキ
TTITLE2=駅
TTITLE3=異邦人
TTITLE4=シルエット・ロマンス
TTITLE5=LOVE LOVE LOVE
TTITLE6=秋桜
TTITLE7=涙そうそう
TTITLE8=オリビアを聴きながら
TTITLE9=ダンスはうまく踊れない
TTITLE10=会いたい
TTITLE11=翼をください
TTITLE12=卒業写真
EXTD=
EXTT0=
EXTT1=
EXTT2=
EXTT3=
EXTT4=
EXTT5=
EXTT6=
EXTT7=
EXTT8=
EXTT9=
EXTT10=
EXTT11=
EXTT12=
PLAYORDER=
